Simulation
nRows=36
nColumns=15
endheader
time  TH_x TH_y TH_z SC_y  SC_z  SC_x  AC_y  AC_z  AC_x  GH_y  GH_z  GH_yy  EL_x  PS_y
8.043  0.000000  0.000000  0.000000  -21.482976647201735  2.996975869402636  -3.622238981851583  57.35928518415157  10.777615906402392  4.824901106523284  -2.1383758721609087  5.537776905352194  57.07079466644543  17.260066788192344  120.000000
8.09662  0.000000  0.000000  0.000000  -20.997628832051124  2.473976390612667  -5.43267562132946  57.01092835880264  10.648096937618758  5.205681302839907  2.4048729683109156  7.762016177753933  52.12283409961001  16.6567316541804  120.000000
8.15024  0.000000  0.000000  0.000000  -20.448528914553396  1.9930569992057907  -7.283125079102024  56.69579659531078  10.689423608186623  5.764959356683248  5.848876199434365  10.193126595856421  48.04977576178166  15.902264131119008  120.000000
8.20386  0.000000  0.000000  0.000000  -19.882291793648797  1.57944990987322  -9.137274523158743  56.503981083037765  10.918327207004536  6.511006350798515  8.649230327892704  12.908466006425044  44.32261306650111  15.053240716513285  120.000000
8.257480000000001  0.000000  0.000000  0.000000  -19.36626636602349  1.2427094980724316  -10.957458444553836  56.50147414657718  11.341820664845246  7.455723370129952  10.82080238698458  15.992183250685182  40.871101457665034  14.18573525873602  120.000000
8.3111  0.000000  0.000000  0.000000  -18.950726827607745  0.9897920248257891  -12.730245371956281  56.762218855694535  11.960665642369245  8.597584495110025  12.334733852378749  19.502555204601663  37.70630524148083  13.382274404806175  120.000000
8.36472  0.000000  0.000000  0.000000  -18.67424952703222  0.8186002549282152  -14.460388320255577  57.33283657156055  12.774410149442838  9.936287867020694  13.187461256926534  23.44974497762215  34.85158800848216  12.699554634817932  120.000000
8.41834  0.000000  0.000000  0.000000  -18.565112610480252  0.7184636538404995  -16.156737672247576  58.21931253117702  13.788161856532877  11.451036348022807  13.460444134917056  27.793609015976266  32.307815539788066  12.146590441860706  120.000000
8.47196  0.000000  0.000000  0.000000  -18.621717043436355  0.6838326924710901  -17.82595009667874  59.39544250105234  15.008200265983719  13.087250074931951  13.320551452320041  32.43897042276609  30.049727319675476  11.704743580246658  120.000000
8.52558  0.000000  0.000000  0.000000  -18.81108109359128  0.7172467752179761  -19.453980856182056  60.79258797221879  16.42946979775723  14.76979180287064  13.00123055285926  37.25414261049213  27.998279454329065  11.349231768513619  120.000000
8.5792  0.000000  0.000000  0.000000  -19.077423945691585  0.8073205389649819  -20.9971624557953  62.28817449288153  18.03562692309716  16.41094110354598  12.723691564005804  42.0967803263003  26.05384383021443  11.060634773184132  120.000000
8.63282  0.000000  0.000000  0.000000  -19.360041621076373  0.9396973493262198  -22.388358123777362  63.73243044502491  19.792610340060556  17.913077351404173  12.6335368616852  46.82093505196989  24.126318942553713  10.82753920154097  120.000000
8.686440000000001  0.000000  0.000000  0.000000  -19.60661678540149  1.1219486887499426  -23.558131788520374  65.00721379554544  21.664191381067806  19.163503015471598  12.789266846626417  51.299314948533045  22.13427847642681  10.63887110180114  120.000000
8.74006  0.000000  0.000000  0.000000  -19.78690804559388  1.3603464537009733  -24.438065396936032  66.02515809458966  23.60842618011573  20.093763667318157  13.17341143472923  55.429075825627585  20.022037617106793  10.488189746431289  120.000000
8.79368  0.000000  0.000000  0.000000  -19.89764864090852  1.6456375704979351  -24.968744777370887  66.74136165716006  25.55562505360607  20.6971707672644  13.727802867074908  59.14012270399911  17.763548691921887  10.372798346529807  120.000000
8.8473  0.000000  0.000000  0.000000  -19.959076656956587  1.9608541363645047  -25.116484808366298  67.15864430153052  27.41713058104371  21.002812773016977  14.374655994237452  62.39824304214783  15.369753411878776  10.291391854576878  120.000000
8.90092  0.000000  0.000000  0.000000  -20.006864276673024  2.2850576779564826  -24.877040581080774  67.30488706714937  29.094312390269994  21.07296229333832  15.036092801060642  65.19792641292034  12.883454348132245  10.245330633435437  120.000000
8.95454  0.000000  0.000000  0.000000  -20.072434204609838  2.601919056100505  -24.274063176599626  67.23180146601942  30.49799546992365  20.974672406277584  15.650495320906115  67.56023065471325  10.364127788838188  10.234002576283816  120.000000
9.00816  0.000000  0.000000  0.000000  -20.172196952570587  2.9037300097568206  -23.34841915386655  67.00314343465682  31.56774700004742  20.764844290640365  16.17788646126889  69.52200471439747  7.8834757929244885  10.254088415008244  120.000000
9.06178  0.000000  0.000000  0.000000  -20.30965163167068  3.190921311932092  -22.15216999780799  66.68473615607397  32.27994214552122  20.4821607944682  16.601043616979595  71.12886755407686  5.518215764517296  10.29554170643786  120.000000
9.115400000000001  0.000000  0.000000  0.000000  -20.48119092261614  3.46757340664902  -20.743533029677607  66.33311164040293  32.64656858392458  20.151235106990526  16.92220764905075  72.42861439987476  3.3466942392543695  10.343001822456879  120.000000
9.16902  0.000000  0.000000  0.000000  -20.682322532813565  3.7371881394925177  -19.185485851934104  65.99116133853569  32.706075661477  19.78792014760854  17.15592951441709  73.46805581838343  1.4407517514154389  10.378610620418748  120.000000
9.22264  0.000000  0.000000  0.000000  -20.90672119883676  3.9994058208091365  -17.547040413456607  65.69085525065367  32.51047940657658  19.40384892936045  17.321222312861632  74.28930979295694  -0.14296919569403208  10.38876254408764  120.000000
9.27626  0.000000  0.000000  0.000000  -21.14302183705524  4.2476393555783725  -15.904253297230516  65.4585256232737  32.11357767733928  19.00971220379402  17.437218513707442  74.92383340452825  -1.371294166223175  10.370093631605663  120.000000
9.32988  0.000000  0.000000  0.000000  -21.370950587599346  4.4709386753669245  -14.340561405796626  65.3200999888219  31.564013908657927  18.614678220114165  17.522017929972606  75.38914271951455  -2.2364973195222047  10.331459465809017  120.000000
9.3835  0.000000  0.000000  0.000000  -21.564333306289722  4.656276247662931  -12.942507769055107  65.29905720202443  30.904350992230963  18.228714929713806  17.59198886461447  75.68793217966255  -2.7504192271644716  10.288466974062883  120.000000
9.43712  0.000000  0.000000  0.000000  -21.697630700500987  4.791013378450763  -11.792573354915017  65.4107398762114  30.17189045636146  17.864329925791687  17.660052495396847  75.81193966978248  -2.9321063121806357  10.253747282943566  120.000000
9.49074  0.000000  0.000000  0.000000  -21.752936798555933  4.86464484996359  -10.96253788212438  65.65672423867466  29.399115150094527  17.537579843169866  17.735377395109218  75.74265358219255  -2.79411655421773  10.22977258317836  120.000000
9.544360000000001  0.000000  0.000000  0.000000  -21.722682054692093  4.868620411565732  -10.510918836836682  66.02231476630892  28.61398067808569  17.268078591808695  17.823829558472827  75.45161972774122  -2.337016694263709  10.206194971391032  120.000000
9.59798  0.000000  0.000000  0.000000  -21.609687851972932  4.796968654699702  -10.480262332885369  66.47576092051762  27.83975114676535  17.078286029009604  17.926848188682268  74.89943515316091  -1.5493027191967041  10.164836790180573  120.000000
9.6516  0.000000  0.000000  0.000000  -21.424444609616714  4.644257136752451  -10.894970961943198  66.96932441021302  27.094081859754866  16.992423224162078  18.03899534869805  74.03551880227518  -0.41444374362500025  10.09016238305558  120.000000
9.70522  0.000000  0.000000  0.000000  -21.183080180506618  4.408057900807586  -11.757891294221347  67.4394565857848  26.387218001116352  17.031252897734763  18.142945845769592  72.80002701577776  1.0817929584016985  9.981170234043516  120.000000
9.75884  0.000000  0.000000  0.000000  -20.90740058018605  4.087739319035326  -13.046883763357325  67.80741515696097  25.723319017782853  17.208942966234662  18.207255219965532  71.12987515434561  2.942639901411591  9.85724526832987  120.000000
9.81246  0.000000  0.000000  0.000000  -20.619800697524983  3.6895314134259585  -14.708995477305994  67.98877872443332  25.106271998848612  17.524872381118257  18.191301667877116  68.96956106734994  5.158705935320048  9.755438870344145  120.000000
9.86608  0.000000  0.000000  0.000000  -20.340949037963163  3.2287272930313433  -16.65828010727201  67.9044240662498  24.54869074276488  17.959322502658207  18.05327899404897  66.27972199593984  7.708737534774284  9.72192429642568  120.000000
9.9197  0.000000  0.000000  0.000000  -20.086834746641262  2.732737844225633  -18.78134867136901  67.49290029338273  24.076727134561416  18.465446758868065  17.755236195620256  63.04735887290697  10.565192580519636  9.801813417179464  120.000000
